<svg width="800" height="500" viewBox="0 0 800 500" xmlns="http://www.w3.org/2000/svg">
  <!-- Background -->
  <rect width="800" height="500" fill="#f8fafc" rx="16"/>
  
  <!-- Browser Window -->
  <rect x="50" y="50" width="700" height="400" fill="#ffffff" rx="12" stroke="#e2e8f0" stroke-width="2"/>
  
  <!-- Browser Header -->
  <rect x="50" y="50" width="700" height="40" fill="#f1f5f9" rx="12 12 0 0"/>
  <circle cx="70" cy="70" r="6" fill="#ef4444"/>
  <circle cx="90" cy="70" r="6" fill="#f59e0b"/>
  <circle cx="110" cy="70" r="6" fill="#10b981"/>
  
  <!-- URL Bar -->
  <rect x="140" y="60" width="300" height="20" fill="#ffffff" rx="10" stroke="#e2e8f0"/>
  <text x="150" y="73" font-family="Inter, sans-serif" font-size="10" fill="#64748b">teachinspire.me/dashboard</text>
  
  <!-- Navigation -->
  <rect x="70" y="110" width="660" height="40" fill="#0ea5e9" rx="8"/>
  <text x="90" y="133" font-family="Inter, sans-serif" font-size="14" fill="#ffffff" font-weight="600">TeachInspire Dashboard</text>
  
  <!-- Main Content Area -->
  <rect x="70" y="170" width="200" height="250" fill="#f8fafc" rx="8" stroke="#e2e8f0"/>
  <text x="80" y="190" font-family="Inter, sans-serif" font-size="12" fill="#1e293b" font-weight="600">Modules de Formation</text>
  
  <!-- Module Cards -->
  <rect x="80" y="200" width="180" height="60" fill="#ffffff" rx="6" stroke="#e2e8f0"/>
  <circle cx="95" cy="220" r="8" fill="#10b981"/>
  <text x="110" y="218" font-family="Inter, sans-serif" font-size="10" fill="#1e293b" font-weight="500">Module 1: Fondations IA</text>
  <text x="110" y="232" font-family="Inter, sans-serif" font-size="9" fill="#64748b">Complété</text>
  <rect x="110" y="240" width="120" height="4" fill="#e2e8f0" rx="2"/>
  <rect x="110" y="240" width="120" height="4" fill="#10b981" rx="2"/>
  
  <rect x="80" y="270" width="180" height="60" fill="#ffffff" rx="6" stroke="#e2e8f0"/>
  <circle cx="95" cy="290" r="8" fill="#f59e0b"/>
  <text x="110" y="288" font-family="Inter, sans-serif" font-size="10" fill="#1e293b" font-weight="500">Module 2: Prompt Engineering</text>
  <text x="110" y="302" font-family="Inter, sans-serif" font-size="9" fill="#64748b">En cours</text>
  <rect x="110" y="310" width="120" height="4" fill="#e2e8f0" rx="2"/>
  <rect x="110" y="310" width="80" height="4" fill="#f59e0b" rx="2"/>
  
  <rect x="80" y="340" width="180" height="60" fill="#ffffff" rx="6" stroke="#e2e8f0"/>
  <circle cx="95" cy="360" r="8" fill="#e2e8f0"/>
  <text x="110" y="358" font-family="Inter, sans-serif" font-size="10" fill="#1e293b" font-weight="500">Module 3: Workflows</text>
  <text x="110" y="372" font-family="Inter, sans-serif" font-size="9" fill="#64748b">À venir</text>
  <rect x="110" y="380" width="120" height="4" fill="#e2e8f0" rx="2"/>
  
  <!-- Main Content -->
  <rect x="290" y="170" width="440" height="250" fill="#ffffff" rx="8" stroke="#e2e8f0"/>
  <text x="310" y="195" font-family="Inter, sans-serif" font-size="16" fill="#1e293b" font-weight="600">Créateur de Prompts IA</text>
  
  <!-- Prompt Builder Interface -->
  <rect x="310" y="210" width="400" height="30" fill="#f8fafc" rx="6" stroke="#e2e8f0"/>
  <text x="320" y="228" font-family="Inter, sans-serif" font-size="11" fill="#64748b">Objectif pédagogique:</text>
  <rect x="310" y="250" width="400" height="60" fill="#f8fafc" rx="6" stroke="#e2e8f0"/>
  <text x="320" y="268" font-family="Inter, sans-serif" font-size="10" fill="#1e293b">Créer un exercice de compréhension orale niveau B1</text>
  <text x="320" y="282" font-family="Inter, sans-serif" font-size="10" fill="#1e293b">sur le thème du voyage professionnel...</text>
  
  <!-- Generate Button -->
  <rect x="310" y="320" width="120" height="35" fill="#0ea5e9" rx="8"/>
  <text x="350" y="340" font-family="Inter, sans-serif" font-size="12" fill="#ffffff" font-weight="600">Générer</text>
  
  <!-- Results Preview -->
  <rect x="310" y="365" width="400" height="45" fill="#f0f9ff" rx="6" stroke="#0ea5e9" stroke-width="1"/>
  <text x="320" y="380" font-family="Inter, sans-serif" font-size="10" fill="#0ea5e9" font-weight="500">✓ Exercice généré avec succès</text>
  <text x="320" y="395" font-family="Inter, sans-serif" font-size="9" fill="#64748b">3 questions de compréhension + audio transcript</text>
</svg>
